<svg xmlns="http://www.w3.org/2000/svg" viewBox="19.99999999999997 165.34391735574604 534.9917726371889 244.31627331535992"> <svg xmlns="http://www.w3.org/2000/svg" xmlns:xlink="http://www.w3.org/1999/xlink" xmlnsSerif="http://www.serif.com/" viewBox="4.000999927520752 4.021999835968018 303.0019836425781 327.95098876953125" version="1.1" xml:space="preserve" height="87.9847658970658" width="81.1446121801411" y="235.34391735574604" x="89.99999999999997" preserveAspectRatio="xMinYMin" fill-rule="evenodd" clip-rule="evenodd" stroke-linejoin="round" stroke-miterlimit="2" style="overflow: visible;"><path id="House" d="M307.003,331.973L307.003,288.439L4.001,288.439L4.001,331.973L307.003,331.973ZM47.537,245.019L47.537,144.901L155.502,59.523L263.467,144.901L263.467,245.019L307.003,245.019L307.003,123.825L155.502,4.022L4.001,123.825L4.001,245.019L47.537,245.019Z" style=""></path></svg> <svg x="187.35130012156858" y="323.1701908999878" viewBox="1.9900000095367432 3.8499999046325684 290.8399963378906 16.489999771118164" height="16.489999771118164" width="290.8399963378906" style="overflow: visible;"><g fill="#545454" fill-opacity="1" style=""><path d="M3.28 16.87L1.99 16.87L1.99 4.67L6.55 4.67Q8.10 4.67 9.22 5.17Q10.34 5.66 10.94 6.60Q11.54 7.53 11.54 8.85L11.54 8.85Q11.54 10.14 10.94 11.08Q10.34 12.01 9.22 12.51Q8.10 13.00 6.55 13.00L6.55 13.00L2.70 13.00L3.28 12.41L3.28 16.87ZM11.73 16.87L10.32 16.87L7.18 12.44L8.58 12.44L11.73 16.87ZM3.28 5.18L3.28 12.51L2.70 11.90L6.52 11.90Q8.35 11.90 9.30 11.10Q10.25 10.30 10.25 8.85L10.25 8.85Q10.25 7.39 9.30 6.59Q8.35 5.79 6.52 5.79L6.52 5.79L2.70 5.79L3.28 5.18ZM20.67 16.96L20.67 16.96Q19.35 16.96 18.29 16.36Q17.24 15.76 16.63 14.70Q16.02 13.65 16.02 12.29L16.02 12.29Q16.02 10.91 16.63 9.86Q17.24 8.82 18.28 8.23Q19.33 7.63 20.67 7.63L20.67 7.63Q22.03 7.63 23.08 8.23Q24.14 8.82 24.74 9.86Q25.34 10.91 25.34 12.29L25.34 12.29Q25.34 13.65 24.74 14.70Q24.14 15.76 23.08 16.36Q22.01 16.96 20.67 16.96ZM20.67 15.86L20.67 15.86Q21.66 15.86 22.43 15.42Q23.20 14.97 23.64 14.16Q24.09 13.35 24.09 12.29L24.09 12.29Q24.09 11.21 23.64 10.41Q23.20 9.60 22.43 9.16Q21.66 8.71 20.69 8.71L20.69 8.71Q19.71 8.71 18.95 9.16Q18.18 9.60 17.73 10.41Q17.27 11.21 17.27 12.29L17.27 12.29Q17.27 13.35 17.73 14.16Q18.18 14.97 18.95 15.42Q19.71 15.86 20.67 15.86ZM34.21 16.96L34.21 16.96Q32.89 16.96 31.83 16.36Q30.78 15.76 30.17 14.70Q29.56 13.65 29.56 12.29L29.56 12.29Q29.56 10.91 30.17 9.86Q30.78 8.82 31.83 8.23Q32.87 7.63 34.21 7.63L34.21 7.63Q35.57 7.63 36.63 8.23Q37.68 8.82 38.28 9.86Q38.88 10.91 38.88 12.29L38.88 12.29Q38.88 13.65 38.28 14.70Q37.68 15.76 36.62 16.36Q35.56 16.96 34.21 16.96ZM34.21 15.86L34.21 15.86Q35.21 15.86 35.97 15.42Q36.74 14.97 37.19 14.16Q37.63 13.35 37.63 12.29L37.63 12.29Q37.63 11.21 37.19 10.41Q36.74 9.60 35.97 9.16Q35.21 8.71 34.23 8.71L34.23 8.71Q33.25 8.71 32.49 9.16Q31.72 9.60 31.27 10.41Q30.81 11.21 30.81 12.29L30.81 12.29Q30.81 13.35 31.27 14.16Q31.72 14.97 32.49 15.42Q33.25 15.86 34.21 15.86ZM45.47 16.87L44.24 16.87L44.24 6.57Q44.24 5.35 44.95 4.60Q45.66 3.85 47.01 3.85L47.01 3.85Q47.53 3.85 48.02 3.99Q48.51 4.13 48.84 4.43L48.84 4.43L48.42 5.35Q48.16 5.12 47.81 5.01Q47.46 4.90 47.06 4.90L47.06 4.90Q46.27 4.90 45.86 5.33Q45.44 5.77 45.44 6.62L45.44 6.62L45.44 8.02L45.47 8.59L45.47 16.87ZM48.26 8.75L42.60 8.75L42.60 7.72L48.26 7.72L48.26 8.75ZM53.79 16.87L52.55 16.87L52.55 7.72L53.79 7.72L53.79 16.87ZM53.18 5.70L53.18 5.70Q52.79 5.70 52.53 5.44Q52.27 5.18 52.27 4.81L52.27 4.81Q52.27 4.44 52.53 4.19Q52.79 3.94 53.18 3.94L53.18 3.94Q53.56 3.94 53.82 4.18Q54.08 4.43 54.08 4.79L54.08 4.79Q54.08 5.18 53.83 5.44Q53.58 5.70 53.18 5.70ZM64.52 7.63L64.52 7.63Q65.64 7.63 66.48 8.06Q67.33 8.49 67.81 9.36Q68.29 10.23 68.29 11.56L68.29 11.56L68.29 16.87L67.05 16.87L67.05 11.68Q67.05 10.23 66.33 9.49Q65.60 8.75 64.30 8.75L64.30 8.75Q63.32 8.75 62.60 9.14Q61.87 9.53 61.48 10.27Q61.09 11.02 61.09 12.06L61.09 12.06L61.09 16.87L59.85 16.87L59.85 7.72L61.04 7.72L61.04 10.23L60.85 9.76Q61.28 8.77 62.24 8.20Q63.20 7.63 64.52 7.63ZM78.15 20.34L78.15 20.34Q76.90 20.34 75.75 19.97Q74.60 19.61 73.88 18.93L73.88 18.93L74.51 17.99Q75.15 18.56 76.10 18.90Q77.05 19.24 78.12 19.24L78.12 19.24Q79.86 19.24 80.68 18.43Q81.50 17.62 81.50 15.91L81.50 15.91L81.50 13.63L81.67 12.06L81.55 10.49L81.55 7.72L82.74 7.72L82.74 15.76Q82.74 18.13 81.58 19.23Q80.42 20.34 78.15 20.34ZM77.93 16.52L77.93 16.52Q76.62 16.52 75.57 15.96Q74.53 15.39 73.93 14.38Q73.32 13.37 73.32 12.06L73.32 12.06Q73.32 10.75 73.93 9.75Q74.53 8.75 75.57 8.19Q76.62 7.63 77.93 7.63L77.93 7.63Q79.15 7.63 80.12 8.14Q81.10 8.64 81.67 9.64Q82.25 10.63 82.25 12.06L82.25 12.06Q82.25 13.49 81.67 14.48Q81.10 15.48 80.12 16.00Q79.15 16.52 77.93 16.52ZM78.05 15.42L78.05 15.42Q79.06 15.42 79.84 15.00Q80.63 14.57 81.08 13.81Q81.53 13.05 81.53 12.06L81.53 12.06Q81.53 11.07 81.08 10.32Q80.63 9.57 79.84 9.14Q79.06 8.71 78.05 8.71L78.05 8.71Q77.05 8.71 76.26 9.14Q75.47 9.57 75.02 10.32Q74.58 11.07 74.58 12.06L74.58 12.06Q74.58 13.05 75.02 13.81Q75.47 14.57 76.26 15.00Q77.05 15.42 78.05 15.42ZM97.48 16.87L96.24 16.87L96.24 4.67L97.31 4.67L102.88 14.19L102.33 14.19L107.85 4.67L108.91 4.67L108.91 16.87L107.68 16.87L107.68 6.61L107.97 6.61L102.88 15.32L102.27 15.32L97.15 6.61L97.48 6.61L97.48 16.87ZM122.16 16.87L120.98 16.87L120.98 14.85L120.92 14.52L120.92 11.14Q120.92 9.97 120.27 9.34Q119.62 8.71 118.33 8.71L118.33 8.71Q117.44 8.71 116.64 9.01Q115.83 9.31 115.28 9.80L115.28 9.80L114.72 8.87Q115.42 8.28 116.39 7.96Q117.37 7.63 118.45 7.63L118.45 7.63Q120.23 7.63 121.19 8.51Q122.16 9.39 122.16 11.19L122.16 11.19L122.16 16.87ZM117.82 16.96L117.82 16.96Q116.79 16.96 116.03 16.62Q115.28 16.28 114.88 15.68Q114.47 15.08 114.47 14.29L114.47 14.29Q114.47 13.58 114.81 12.99Q115.15 12.41 115.93 12.05Q116.71 11.69 118.01 11.69L118.01 11.69L121.17 11.69L121.17 12.62L118.05 12.62Q116.72 12.62 116.21 13.09Q115.69 13.56 115.69 14.26L115.69 14.26Q115.69 15.04 116.30 15.51Q116.91 15.98 118.01 15.98L118.01 15.98Q119.06 15.98 119.82 15.50Q120.57 15.02 120.92 14.12L120.92 14.12L121.20 14.97Q120.85 15.88 119.99 16.42Q119.13 16.96 117.82 16.96ZM131.78 16.96L131.78 16.96Q130.47 16.96 129.44 16.37Q128.40 15.77 127.81 14.72Q127.22 13.66 127.22 12.29L127.22 12.29Q127.22 10.89 127.81 9.85Q128.40 8.80 129.44 8.22Q130.47 7.63 131.78 7.63L131.78 7.63Q132.98 7.63 133.93 8.17Q134.88 8.71 135.45 9.75Q136.02 10.79 136.02 12.29L136.02 12.29Q136.02 13.77 135.46 14.81Q134.90 15.86 133.95 16.41Q133.00 16.96 131.78 16.96ZM131.87 15.86L131.87 15.86Q132.84 15.86 133.62 15.42Q134.40 14.97 134.84 14.16Q135.28 13.35 135.28 12.29L135.28 12.29Q135.28 11.21 134.84 10.41Q134.40 9.60 133.62 9.16Q132.84 8.71 131.87 8.71L131.87 8.71Q130.91 8.71 130.14 9.16Q129.38 9.60 128.92 10.41Q128.47 11.21 128.47 12.29L128.47 12.29Q128.47 13.35 128.92 14.16Q129.38 14.97 130.14 15.42Q130.91 15.86 131.87 15.86ZM136.50 16.87L135.32 16.87L135.32 14.12L135.44 12.27L135.27 10.42L135.27 3.94L136.50 3.94L136.50 16.87ZM146.46 16.96L146.46 16.96Q145.03 16.96 143.95 16.36Q142.87 15.76 142.26 14.70Q141.65 13.65 141.65 12.29L141.65 12.29Q141.65 10.93 142.23 9.88Q142.81 8.84 143.83 8.24Q144.85 7.63 146.13 7.63L146.13 7.63Q147.42 7.63 148.42 8.22Q149.42 8.80 149.99 9.86Q150.57 10.91 150.57 12.29L150.57 12.29Q150.57 12.37 150.56 12.47Q150.55 12.57 150.55 12.67L150.55 12.67L142.59 12.67L142.59 11.75L149.89 11.75L149.40 12.11Q149.40 11.12 148.98 10.34Q148.55 9.57 147.82 9.13Q147.08 8.70 146.13 8.70L146.13 8.70Q145.18 8.70 144.44 9.13Q143.69 9.57 143.27 10.35Q142.85 11.14 142.85 12.15L142.85 12.15L142.85 12.34Q142.85 13.39 143.31 14.18Q143.77 14.97 144.60 15.42Q145.43 15.86 146.49 15.86L146.49 15.86Q147.33 15.86 148.05 15.56Q148.77 15.27 149.30 14.66L149.30 14.66L149.99 15.46Q149.38 16.19 148.47 16.58Q147.55 16.96 146.46 16.96ZM166.81 16.87L165.52 16.87L165.52 5.79L161.24 5.79L161.24 4.67L171.10 4.67L171.10 5.79L166.81 5.79L166.81 16.87ZM176.75 16.87L175.51 16.87L175.51 7.72L176.70 7.72L176.70 10.21L176.57 9.78Q176.96 8.73 177.86 8.18Q178.77 7.63 180.11 7.63L180.11 7.63L180.11 8.84Q180.04 8.84 179.97 8.83Q179.90 8.82 179.83 8.82L179.83 8.82Q178.39 8.82 177.57 9.70Q176.75 10.58 176.75 12.20L176.75 12.20L176.75 16.87ZM192.03 16.87L190.85 16.87L190.85 14.85L190.80 14.52L190.80 11.14Q190.80 9.97 190.14 9.34Q189.49 8.71 188.20 8.71L188.20 8.71Q187.31 8.71 186.51 9.01Q185.71 9.31 185.15 9.80L185.15 9.80L184.59 8.87Q185.29 8.28 186.26 7.96Q187.24 7.63 188.32 7.63L188.32 7.63Q190.10 7.63 191.07 8.51Q192.03 9.39 192.03 11.19L192.03 11.19L192.03 16.87ZM187.69 16.96L187.69 16.96Q186.67 16.96 185.91 16.62Q185.15 16.28 184.75 15.68Q184.35 15.08 184.35 14.29L184.35 14.29Q184.35 13.58 184.69 12.99Q185.03 12.41 185.80 12.05Q186.58 11.69 187.89 11.69L187.89 11.69L191.04 11.69L191.04 12.62L187.92 12.62Q186.60 12.62 186.08 13.09Q185.57 13.56 185.57 14.26L185.57 14.26Q185.57 15.04 186.18 15.51Q186.79 15.98 187.89 15.98L187.89 15.98Q188.93 15.98 189.69 15.50Q190.45 15.02 190.80 14.12L190.80 14.12L191.08 14.97Q190.73 15.88 189.86 16.42Q189.00 16.96 187.69 16.96ZM202.68 7.63L202.68 7.63Q203.80 7.63 204.64 8.06Q205.49 8.49 205.97 9.36Q206.45 10.23 206.45 11.56L206.45 11.56L206.45 16.87L205.21 16.87L205.21 11.68Q205.21 10.23 204.49 9.49Q203.76 8.75 202.46 8.75L202.46 8.75Q201.48 8.75 200.76 9.14Q200.03 9.53 199.64 10.27Q199.25 11.02 199.25 12.06L199.25 12.06L199.25 16.87L198.01 16.87L198.01 7.72L199.20 7.72L199.20 10.23L199.01 9.76Q199.44 8.77 200.40 8.20Q201.36 7.63 202.68 7.63ZM214.87 16.96L214.87 16.96Q213.73 16.96 212.72 16.64Q211.71 16.31 211.14 15.83L211.14 15.83L211.69 14.85Q212.25 15.27 213.12 15.57Q213.99 15.88 214.95 15.88L214.95 15.88Q216.26 15.88 216.84 15.47Q217.41 15.06 217.41 14.38L217.41 14.38Q217.41 13.87 217.09 13.59Q216.77 13.30 216.24 13.15Q215.72 13.00 215.08 12.90Q214.43 12.79 213.79 12.65Q213.16 12.51 212.64 12.24Q212.11 11.97 211.79 11.50Q211.47 11.03 211.47 10.25L211.47 10.25Q211.47 9.50 211.89 8.91Q212.30 8.31 213.11 7.97Q213.92 7.63 215.09 7.63L215.09 7.63Q215.98 7.63 216.87 7.87Q217.76 8.10 218.33 8.49L218.33 8.49L217.79 9.48Q217.18 9.06 216.49 8.88Q215.79 8.70 215.09 8.70L215.09 8.70Q213.86 8.70 213.27 9.12Q212.69 9.55 212.69 10.21L212.69 10.21Q212.69 10.74 213.01 11.03Q213.33 11.33 213.86 11.49Q214.40 11.66 215.03 11.76Q215.67 11.87 216.30 12.02Q216.94 12.17 217.47 12.42Q218.00 12.67 218.33 13.13Q218.65 13.59 218.65 14.34L218.65 14.34Q218.65 15.15 218.20 15.73Q217.76 16.31 216.91 16.64Q216.07 16.96 214.87 16.96ZM228.25 16.96L228.25 16.96Q227.07 16.96 226.11 16.41Q225.15 15.86 224.58 14.82Q224.02 13.79 224.02 12.29L224.02 12.29Q224.02 10.79 224.57 9.75Q225.13 8.71 226.09 8.17Q227.05 7.63 228.25 7.63L228.25 7.63Q229.56 7.63 230.60 8.22Q231.63 8.80 232.23 9.86Q232.82 10.91 232.82 12.29L232.82 12.29Q232.82 13.68 232.23 14.73Q231.63 15.77 230.60 16.37Q229.56 16.96 228.25 16.96ZM224.77 20.25L223.53 20.25L223.53 7.72L224.71 7.72L224.71 10.47L224.59 12.30L224.77 14.15L224.77 20.25ZM228.16 15.86L228.16 15.86Q229.14 15.86 229.91 15.42Q230.67 14.97 231.13 14.16Q231.58 13.35 231.58 12.29L231.58 12.29Q231.58 11.22 231.13 10.42Q230.67 9.62 229.91 9.17Q229.14 8.71 228.16 8.71L228.16 8.71Q227.19 8.71 226.41 9.17Q225.64 9.62 225.19 10.42Q224.75 11.22 224.75 12.29L224.75 12.29Q224.75 13.35 225.19 14.16Q225.64 14.97 226.41 15.42Q227.19 15.86 228.16 15.86ZM244.88 16.87L243.69 16.87L243.69 14.85L243.64 14.52L243.64 11.14Q243.64 9.97 242.99 9.34Q242.33 8.71 241.04 8.71L241.04 8.71Q240.16 8.71 239.35 9.01Q238.55 9.31 237.99 9.80L237.99 9.80L237.44 8.87Q238.13 8.28 239.11 7.96Q240.09 7.63 241.17 7.63L241.17 7.63Q242.94 7.63 243.91 8.51Q244.88 9.39 244.88 11.19L244.88 11.19L244.88 16.87ZM240.54 16.96L240.54 16.96Q239.51 16.96 238.75 16.62Q237.99 16.28 237.59 15.68Q237.19 15.08 237.19 14.29L237.19 14.29Q237.19 13.58 237.53 12.99Q237.87 12.41 238.65 12.05Q239.42 11.69 240.73 11.69L240.73 11.69L243.89 11.69L243.89 12.62L240.77 12.62Q239.44 12.62 238.93 13.09Q238.41 13.56 238.41 14.26L238.41 14.26Q238.41 15.04 239.02 15.51Q239.63 15.98 240.73 15.98L240.73 15.98Q241.78 15.98 242.53 15.50Q243.29 15.02 243.64 14.12L243.64 14.12L243.92 14.97Q243.57 15.88 242.71 16.42Q241.85 16.96 240.54 16.96ZM252.09 16.87L250.86 16.87L250.86 7.72L252.04 7.72L252.04 10.21L251.92 9.78Q252.30 8.73 253.21 8.18Q254.12 7.63 255.46 7.63L255.46 7.63L255.46 8.84Q255.39 8.84 255.32 8.83Q255.25 8.82 255.18 8.82L255.18 8.82Q253.73 8.82 252.91 9.70Q252.09 10.58 252.09 12.20L252.09 12.20L252.09 16.87ZM264.35 16.96L264.35 16.96Q262.92 16.96 261.84 16.36Q260.76 15.76 260.15 14.70Q259.54 13.65 259.54 12.29L259.54 12.29Q259.54 10.93 260.12 9.88Q260.70 8.84 261.72 8.24Q262.74 7.63 264.02 7.63L264.02 7.63Q265.31 7.63 266.31 8.22Q267.31 8.80 267.89 9.86Q268.46 10.91 268.46 12.29L268.46 12.29Q268.46 12.37 268.45 12.47Q268.44 12.57 268.44 12.67L268.44 12.67L260.48 12.67L260.48 11.75L267.78 11.75L267.29 12.11Q267.29 11.12 266.87 10.34Q266.44 9.57 265.71 9.13Q264.97 8.70 264.02 8.70L264.02 8.70Q263.08 8.70 262.33 9.13Q261.58 9.57 261.16 10.35Q260.74 11.14 260.74 12.15L260.74 12.15L260.74 12.34Q260.74 13.39 261.20 14.18Q261.66 14.97 262.49 15.42Q263.32 15.86 264.38 15.86L264.38 15.86Q265.22 15.86 265.94 15.56Q266.67 15.27 267.19 14.66L267.19 14.66L267.89 15.46Q267.28 16.19 266.36 16.58Q265.45 16.96 264.35 16.96ZM278.27 7.63L278.27 7.63Q279.39 7.63 280.23 8.06Q281.08 8.49 281.56 9.36Q282.04 10.23 282.04 11.56L282.04 11.56L282.04 16.87L280.80 16.87L280.80 11.68Q280.80 10.23 280.08 9.49Q279.35 8.75 278.05 8.75L278.05 8.75Q277.07 8.75 276.35 9.14Q275.62 9.53 275.23 10.27Q274.84 11.02 274.84 12.06L274.84 12.06L274.84 16.87L273.60 16.87L273.60 7.72L274.79 7.72L274.79 10.23L274.60 9.76Q275.03 8.77 275.99 8.20Q276.95 7.63 278.27 7.63ZM290.89 16.96L290.89 16.96Q289.60 16.96 288.91 16.26Q288.21 15.56 288.21 14.29L288.21 14.29L288.21 5.70L289.45 5.70L289.45 14.22Q289.45 15.02 289.85 15.46Q290.26 15.90 291.03 15.90L291.03 15.90Q291.85 15.90 292.39 15.42L292.39 15.42L292.83 16.31Q292.46 16.64 291.95 16.80Q291.43 16.96 290.89 16.96ZM292.23 8.75L286.57 8.75L286.57 7.72L292.23 7.72L292.23 8.75Z" transform="translate(0, 0)"></path></g></svg> <svg x="187.35175798875142" y="265.4035206939803" viewBox="2.799999952316284 11.239999771118164 297.6400146484375 48.55999755859375" height="48.55999755859375" width="297.6400146484375" style="overflow: visible;"><g fill="#000" style=""><path d="M2.80 15.71L23.42 15.71L23.42 21.89L10.52 21.89L10.52 28.57L20.17 28.57L20.17 34.57L10.52 34.57L10.52 47.39L2.80 47.39L2.80 15.71ZM25.50 34.75Q25.50 30.87 26.97 27.94Q28.43 25.00 30.96 23.42Q33.49 21.84 36.60 21.84L36.60 21.84Q39.26 21.84 41.27 22.93Q43.28 24.01 44.36 25.77L44.36 25.77L44.36 22.20L52.08 22.20L52.08 47.39L44.36 47.39L44.36 43.82Q43.24 45.58 41.23 46.67Q39.22 47.75 36.56 47.75L36.56 47.75Q33.49 47.75 30.96 46.15Q28.43 44.55 26.97 41.59Q25.50 38.63 25.50 34.75L25.50 34.75ZM44.36 34.80Q44.36 31.91 42.76 30.24Q41.16 28.57 38.86 28.57L38.86 28.57Q36.56 28.57 34.95 30.22Q33.35 31.86 33.35 34.75L33.35 34.75Q33.35 37.64 34.95 39.33Q36.56 41.02 38.86 41.02L38.86 41.02Q41.16 41.02 42.76 39.36Q44.36 37.69 44.36 34.80L44.36 34.80ZM55.69 34.80Q55.69 30.87 57.30 27.94Q58.90 25.00 61.76 23.42Q64.63 21.84 68.33 21.84L68.33 21.84Q73.07 21.84 76.25 24.33Q79.43 26.81 80.43 31.32L80.43 31.32L72.21 31.32Q71.17 28.43 68.19 28.43L68.19 28.43Q66.07 28.43 64.81 30.08Q63.55 31.73 63.55 34.80L63.55 34.80Q63.55 37.87 64.81 39.51Q66.07 41.16 68.19 41.16L68.19 41.16Q71.17 41.16 72.21 38.27L72.21 38.27L80.43 38.27Q79.43 42.69 76.23 45.22Q73.02 47.75 68.33 47.75L68.33 47.75Q64.63 47.75 61.76 46.17Q58.90 44.59 57.30 41.66Q55.69 38.72 55.69 34.80L55.69 34.80ZM87.96 19.59Q85.93 19.59 84.65 18.39Q83.36 17.20 83.36 15.44L83.36 15.44Q83.36 13.63 84.65 12.43Q85.93 11.24 87.96 11.24L87.96 11.24Q89.95 11.24 91.23 12.43Q92.52 13.63 92.52 15.44L92.52 15.44Q92.52 17.20 91.23 18.39Q89.95 19.59 87.96 19.59L87.96 19.59ZM84.08 22.20L91.80 22.20L91.80 47.39L84.08 47.39L84.08 22.20ZM96.94 13.99L104.66 13.99L104.66 47.39L96.94 47.39L96.94 13.99ZM113.69 19.59Q111.66 19.59 110.37 18.39Q109.08 17.20 109.08 15.44L109.08 15.44Q109.08 13.63 110.37 12.43Q111.66 11.24 113.69 11.24L113.69 11.24Q115.67 11.24 116.96 12.43Q118.25 13.63 118.25 15.44L118.25 15.44Q118.25 17.20 116.96 18.39Q115.67 19.59 113.69 19.59L113.69 19.59ZM109.81 22.20L117.52 22.20L117.52 47.39L109.81 47.39L109.81 22.20ZM133.95 40.84L136.70 40.84L136.70 47.39L132.78 47.39Q128.58 47.39 126.23 45.34Q123.89 43.28 123.89 38.63L123.89 38.63L123.89 28.61L120.82 28.61L120.82 22.20L123.89 22.20L123.89 16.07L131.60 16.07L131.60 22.20L136.66 22.20L136.66 28.61L131.60 28.61L131.60 38.72Q131.60 39.85 132.15 40.35Q132.69 40.84 133.95 40.84L133.95 40.84ZM139.01 34.75Q139.01 30.87 140.47 27.94Q141.94 25.00 144.47 23.42Q146.99 21.84 150.11 21.84L150.11 21.84Q152.77 21.84 154.78 22.93Q156.79 24.01 157.87 25.77L157.87 25.77L157.87 22.20L165.59 22.20L165.59 47.39L157.87 47.39L157.87 43.82Q156.74 45.58 154.73 46.67Q152.73 47.75 150.06 47.75L150.06 47.75Q146.99 47.75 144.47 46.15Q141.94 44.55 140.47 41.59Q139.01 38.63 139.01 34.75L139.01 34.75ZM157.87 34.80Q157.87 31.91 156.27 30.24Q154.67 28.57 152.37 28.57L152.37 28.57Q150.06 28.57 148.46 30.22Q146.86 31.86 146.86 34.75L146.86 34.75Q146.86 37.64 148.46 39.33Q150.06 41.02 152.37 41.02L152.37 41.02Q154.67 41.02 156.27 39.36Q157.87 37.69 157.87 34.80L157.87 34.80ZM182.02 40.84L184.77 40.84L184.77 47.39L180.84 47.39Q176.65 47.39 174.30 45.34Q171.95 43.28 171.95 38.63L171.95 38.63L171.95 28.61L168.88 28.61L168.88 22.20L171.95 22.20L171.95 16.07L179.67 16.07L179.67 22.20L184.73 22.20L184.73 28.61L179.67 28.61L179.67 38.72Q179.67 39.85 180.21 40.35Q180.75 40.84 182.02 40.84L182.02 40.84ZM212.35 34.39Q212.35 35.47 212.21 36.65L212.21 36.65L194.74 36.65Q194.92 38.99 196.26 40.24Q197.59 41.48 199.53 41.48L199.53 41.48Q202.42 41.48 203.55 39.04L203.55 39.04L211.76 39.04Q211.13 41.52 209.48 43.51Q207.83 45.49 205.35 46.62Q202.87 47.75 199.80 47.75L199.80 47.75Q196.10 47.75 193.21 46.17Q190.32 44.59 188.70 41.66Q187.07 38.72 187.07 34.80L187.07 34.80Q187.07 30.87 188.67 27.94Q190.28 25.00 193.16 23.42Q196.05 21.84 199.80 21.84L199.80 21.84Q203.45 21.84 206.30 23.38Q209.14 24.91 210.74 27.76Q212.35 30.60 212.35 34.39L212.35 34.39ZM194.79 32.36L204.45 32.36Q204.45 30.37 203.09 29.20Q201.74 28.03 199.71 28.03L199.71 28.03Q197.77 28.03 196.44 29.16Q195.11 30.28 194.79 32.36L194.79 32.36ZM219.57 47.75Q217.54 47.75 216.25 46.55Q214.96 45.36 214.96 43.60L214.96 43.60Q214.96 41.79 216.25 40.57Q217.54 39.36 219.57 39.36L219.57 39.36Q221.55 39.36 222.84 40.57Q224.13 41.79 224.13 43.60L224.13 43.60Q224.13 45.36 222.84 46.55Q221.55 47.75 219.57 47.75L219.57 47.75ZM239.70 47.75Q236.00 47.75 233.04 46.17Q230.08 44.59 228.39 41.66Q226.70 38.72 226.70 34.80L226.70 34.80Q226.70 30.92 228.41 27.96Q230.13 25.00 233.11 23.42Q236.09 21.84 239.79 21.84L239.79 21.84Q243.49 21.84 246.47 23.42Q249.44 25.00 251.16 27.96Q252.87 30.92 252.87 34.80L252.87 34.80Q252.87 38.68 251.14 41.63Q249.40 44.59 246.40 46.17Q243.40 47.75 239.70 47.75L239.70 47.75ZM239.70 41.07Q241.91 41.07 243.46 39.45Q245.02 37.82 245.02 34.80L245.02 34.80Q245.02 31.77 243.51 30.15Q242.00 28.52 239.79 28.52L239.79 28.52Q237.53 28.52 236.04 30.13Q234.55 31.73 234.55 34.80L234.55 34.80Q234.55 37.82 236.02 39.45Q237.48 41.07 239.70 41.07L239.70 41.07ZM264.25 26.40Q265.60 24.33 267.63 23.13Q269.66 21.93 272.15 21.93L272.15 21.93L272.15 30.10L270.02 30.10Q267.14 30.10 265.69 31.34Q264.25 32.59 264.25 35.70L264.25 35.70L264.25 47.39L256.53 47.39L256.53 22.20L264.25 22.20L264.25 26.40ZM284.96 21.84Q287.63 21.84 289.63 22.93Q291.64 24.01 292.73 25.77L292.73 25.77L292.73 22.20L300.44 22.20L300.44 47.34Q300.44 50.82 299.07 53.64Q297.69 56.46 294.87 58.13Q292.05 59.80 287.85 59.80L287.85 59.80Q282.26 59.80 278.78 57.16Q275.31 54.52 274.81 50.01L274.81 50.01L282.44 50.01Q282.80 51.45 284.15 52.29Q285.50 53.12 287.49 53.12L287.49 53.12Q289.88 53.12 291.30 51.74Q292.73 50.37 292.73 47.34L292.73 47.34L292.73 43.78Q291.60 45.54 289.61 46.64Q287.63 47.75 284.96 47.75L284.96 47.75Q281.85 47.75 279.32 46.15Q276.79 44.55 275.33 41.59Q273.86 38.63 273.86 34.75L273.86 34.75Q273.86 30.87 275.33 27.94Q276.79 25.00 279.32 23.42Q281.85 21.84 284.96 21.84L284.96 21.84ZM292.73 34.80Q292.73 31.91 291.12 30.24Q289.52 28.57 287.22 28.57L287.22 28.57Q284.92 28.57 283.32 30.22Q281.71 31.86 281.71 34.75L281.71 34.75Q281.71 37.64 283.32 39.33Q284.92 41.02 287.22 41.02L287.22 41.02Q289.52 41.02 291.12 39.36Q292.73 37.69 292.73 34.80L292.73 34.80Z" transform="translate(0, 0)"></path></g></svg></svg>